<svg width="40" height="40" viewBox="0 0 40 40" fill="none" xmlns="http://www.w3.org/2000/svg">
<path d="M23.6668 4.7915C21.6225 4.7915 19.6618 5.60364 18.2162 7.04922C16.7707 8.49482 15.9585 10.4555 15.9585 12.4998V16.7915H11.8335C11.6264 16.7915 11.4585 16.9593 11.4585 17.1665V22.8332C11.4585 23.0403 11.6264 23.2082 11.8335 23.2082H15.9585V34.8332C15.9585 35.0403 16.1264 35.2082 16.3335 35.2082H22.0002C22.2073 35.2082 22.3752 35.0403 22.3752 34.8332V23.2082H26.5367C26.7088 23.2082 26.8588 23.091 26.9005 22.9242L28.3172 17.2575C28.3763 17.0208 28.1973 16.7915 27.9533 16.7915H22.3752V12.4998C22.3752 12.1573 22.5113 11.8287 22.7535 11.5865C22.9957 11.3443 23.3243 11.2082 23.6668 11.2082H28.0002C28.2073 11.2082 28.3752 11.0403 28.3752 10.8332V5.1665C28.3752 4.9594 28.2073 4.7915 28.0002 4.7915H23.6668Z" fill="white"/>
</svg>
