<svg width="238" height="238" viewBox="0 0 238 238" fill="none" xmlns="http://www.w3.org/2000/svg">
<path d="M207.212 119.318L232.407 123.626L228.663 145.52L223.411 144.622L226.124 128.76L206.181 125.351L207.212 119.318Z" fill="white"/>
<path d="M191.994 166.428L196.777 167.038L202.966 156.561L200.124 152.666L203.255 147.366L219.598 170.024L216.412 175.418L188.698 172.008L191.994 166.428ZM206.25 161.052L202.295 167.747L212.053 168.996L206.25 161.052Z" fill="white"/>
<path d="M184.938 177.754L200.791 197.804L189.072 207.07C186.85 208.827 184.675 209.674 182.546 209.613C180.414 209.586 178.484 208.481 176.758 206.297C175.046 204.132 174.408 201.99 174.843 199.871C175.279 197.752 176.598 195.822 178.801 194.08L185.748 188.587L180.166 181.527L184.938 177.754ZM186.219 202.533L192.714 197.398L189.052 192.767L182.557 197.902C180.731 199.346 180.428 200.84 181.649 202.384C182.869 203.927 184.393 203.977 186.219 202.533Z" fill="white"/>
<path d="M140.629 203.468L143.755 207.138L155.385 203.557L155.905 198.764L161.788 196.952L158.621 224.71L152.634 226.553L134.436 205.375L140.629 203.468ZM154.79 209.089L147.359 211.377L153.734 218.869L154.79 209.089Z" fill="white"/>
<path d="M108.986 205.68L108.168 215.763L120.619 216.773L121.437 206.691L127.537 207.186L125.469 232.662L119.369 232.167L120.182 222.156L107.731 221.145L106.918 231.156L100.854 230.664L102.922 205.188L108.986 205.68Z" fill="white"/>
<path d="M86.8691 223.037L84.5407 227.829L61.6477 216.706L63.9761 211.914L72.6864 216.146L81.528 197.948L87.0003 200.607L78.1587 218.805L86.8691 223.037Z" fill="white"/>
<path d="M65.6056 190.119L46.8873 207.524L42.7198 203.042L55.3217 191.324L33.9928 193.656L29.8253 189.175L48.5436 171.769L52.7111 176.251L40.1092 187.969L61.4381 185.637L65.6056 190.119Z" fill="white"/>
<path d="M41.1318 160.567L43.5349 166.624L31.9078 164.846C32.2228 168.568 30.6513 171.115 27.1936 172.487C24.6281 173.505 22.4198 173.504 20.5687 172.482C18.6864 171.447 17.2275 169.625 16.1919 167.015L10.6821 153.128L34.4405 143.702L36.6975 149.39L27.9972 152.842L30.4401 158.999L41.1318 160.567ZM26.2259 162.337L23.2121 154.741L17.8247 156.878L20.8384 164.474C21.697 166.638 23.0297 167.362 24.8367 166.645C26.6214 165.937 27.0844 164.501 26.2259 162.337Z" fill="white"/>
<path d="M29.9285 114.231L5.02211 108.488L6.39722 102.524L17.1666 105.007L9.02612 91.1233L10.8138 83.3707L19.8908 98.8009L35.8496 88.5527L33.973 96.6911L20.1133 105.687L31.3036 108.267L29.9285 114.231Z" fill="white"/>
<path d="M48.517 66.3891L43.7848 65.4653L36.9177 75.5104L39.4964 79.5844L36.0223 84.6664L21.2102 60.9787L24.7454 55.8076L52.174 61.0396L48.517 66.3891ZM33.9369 70.8126L38.3253 64.3932L28.6715 62.5035L33.9369 70.8126Z" fill="white"/>
<path d="M70.4501 45.7796L65.2009 38.1608C63.3238 39.9204 61.4565 41.4402 59.5987 42.7202C56.6343 44.7628 53.9745 45.619 51.6195 45.2889C49.2645 44.9588 47.1134 43.3806 45.1662 40.5545L41.2446 34.8627L46.2842 31.3904L50.1854 37.0525C51.1385 38.436 52.1455 39.1994 53.2061 39.343C54.2866 39.4729 55.5284 39.0545 56.9316 38.0877C58.5719 36.9575 60.3139 35.5095 62.1575 33.7437L55.9484 24.7317L60.9879 21.2594L75.4897 42.3073L70.4501 45.7796Z" fill="white"/>
<path d="M83.06 37.4723L76.9384 12.6562L97.7 7.5347L98.9071 12.428L84.0874 16.0838L85.191 20.5577L94.0339 18.3763L95.2668 23.3745L86.4239 25.5558L87.7344 30.8686L103.917 26.8766L105.185 32.0146L83.06 37.4723Z" fill="white"/>
<path d="M125.258 31.9566C121.443 31.5136 118.464 29.9112 116.321 27.1494C114.18 24.3638 113.328 21.0877 113.765 17.321C114.211 13.4828 115.805 10.4785 118.545 8.30825C121.286 6.13796 124.54 5.27156 128.306 5.70906C130.666 5.98318 132.776 6.74771 134.636 8.00264C136.522 9.2365 137.863 10.9023 138.658 13.0001C139.043 14.0595 139.265 14.9551 139.325 15.6869L133.138 14.9684C133.044 14.74 132.864 14.4171 132.598 13.9996C131.954 13.1032 131.073 12.3607 129.958 11.7721C129.291 11.4772 128.529 11.28 127.671 11.1803C125.573 10.9366 123.829 11.4951 122.439 12.8558C121.051 14.1927 120.234 15.9219 119.988 18.0437C119.738 20.1893 120.148 22.0731 121.216 23.6951C122.284 25.3172 123.843 26.2473 125.893 26.4854C128.206 26.754 130.044 26.2185 131.407 24.8788C131.823 24.4197 132.06 24.1453 132.119 24.0555L138.27 24.7699C137.816 26.3843 136.891 27.799 135.494 29.0139C134.099 30.2049 132.537 31.0625 130.809 31.5867C129.301 32.088 127.451 32.2113 125.258 31.9566Z" fill="white"/>
<path d="M152.829 15.2262L155.281 10.4959L177.878 22.2089L175.426 26.9391L166.829 22.4826L157.518 40.4449L152.116 37.645L161.427 19.6827L152.829 15.2262Z" fill="white"/>
<path d="M173.249 48.753L192.28 31.6909L202.133 42.681C203.815 44.5573 204.765 46.4617 204.982 48.3941C205.234 50.3283 204.466 52.0965 202.679 53.6986C202.214 54.1151 201.703 54.4441 201.146 54.6857C199.55 55.2784 197.991 55.1934 196.469 54.4305C196.667 54.8661 196.831 55.4444 196.961 56.1654C197.184 58.319 196.428 60.1728 194.695 61.7268C192.854 63.3769 190.918 63.9682 188.887 63.5004C186.872 63.0506 185 61.8607 183.27 59.9307L173.249 48.753ZM197.812 45.2495L192.621 39.4596L188.868 42.824L194.059 48.6139C195.533 50.2579 196.895 50.5192 198.146 49.3977C198.861 48.7569 199.152 48.093 199.02 47.4059C198.903 46.7367 198.501 46.0179 197.812 45.2495ZM190.483 52.0133L185.196 46.1162L180.934 49.9372L186.221 55.8343C187.919 57.7285 189.483 58.0348 190.913 56.7531C192.324 55.4875 192.181 53.9076 190.483 52.0133Z" fill="white"/>
<path d="M201.664 91.1648L205.127 87.8098L200.809 76.4335L195.993 76.2207L193.808 70.4653L221.711 71.8509L223.934 77.7073L203.963 97.2232L201.664 91.1648ZM206.368 76.6727L209.127 83.9428L216.196 77.1016L206.368 76.6727Z" fill="white"/>
<path fill-rule="evenodd" clip-rule="evenodd" d="M143.947 144.067V117.824C143.947 104.725 133.13 94.0181 119.901 94.0181H117.838C104.799 94.0181 94.1377 104.573 94.1377 117.48V118.201C94.1377 132.433 105.89 144.067 120.266 144.067H143.947ZM156.085 156.085H120.266C99.1893 156.085 82 139.067 82 118.201V117.48C82 97.9389 98.0981 82 117.838 82H119.901C139.83 82 156.085 98.0919 156.085 117.824V156.085Z" fill="white"/>
</svg>
