<svg width="40" height="40" viewBox="0 0 40 40" fill="none" xmlns="http://www.w3.org/2000/svg">
<path d="M20 14.5835C17.0085 14.5835 14.5834 17.0087 14.5834 20.0002C14.5834 22.9917 17.0085 25.4168 20 25.4168C22.9915 25.4168 25.4167 22.9917 25.4167 20.0002C25.4167 17.0087 22.9915 14.5835 20 14.5835Z" fill="white"/>
<path fill-rule="evenodd" clip-rule="evenodd" d="M11.2824 5.13602C17.0293 4.49372 22.9705 4.49372 28.7173 5.13602C31.8813 5.48964 34.4333 7.98261 34.8046 11.1577C35.4918 17.0327 35.4918 22.9677 34.8046 28.8427C34.4333 32.0179 31.8813 34.5109 28.7173 34.8644C22.9705 35.5067 17.0293 35.5067 11.2824 34.8644C8.11839 34.5109 5.5664 32.0179 5.19504 28.8427C4.5079 22.9677 4.5079 17.0327 5.19504 11.1577C5.5664 7.98261 8.11839 5.48964 11.2824 5.13602ZM28.3331 10.0002C27.4126 10.0002 26.6665 10.7464 26.6665 11.6669C26.6665 12.5874 27.4126 13.3336 28.3331 13.3336C29.2536 13.3336 29.9998 12.5874 29.9998 11.6669C29.9998 10.7464 29.2536 10.0002 28.3331 10.0002ZM12.0832 20.0002C12.0832 15.628 15.6276 12.0836 19.9998 12.0836C24.3721 12.0836 27.9165 15.628 27.9165 20.0002C27.9165 24.3726 24.3721 27.9169 19.9998 27.9169C15.6276 27.9169 12.0832 24.3726 12.0832 20.0002Z" fill="white"/>
</svg>
