<svg width="515" height="256" viewBox="0 0 515 256" fill="none" xmlns="http://www.w3.org/2000/svg">
<g filter="url(#filter0_d_1_12)">
<path fill-rule="evenodd" clip-rule="evenodd" d="M149.1 189.175V145.884C149.1 124.277 131.272 106.614 109.468 106.614H106.068C84.5764 106.614 67.0052 124.025 67.0052 145.317V146.506C67.0052 169.984 86.375 189.175 110.069 189.175H149.1ZM169.106 209H110.069C75.3313 209 47 180.927 47 146.506V145.317C47 113.082 73.5327 86.7884 106.068 86.7884H109.468C142.316 86.7884 169.106 113.334 169.106 145.884V209ZM294.173 86.6713H260.136V47H240.131V86.6713H239.159C206.207 86.6713 179.33 113.303 179.33 145.955V209H199.338V145.955C199.338 124.246 217.251 106.497 239.159 106.497H240.131V147.315C240.131 180.974 267.667 208.258 301.635 208.258C315.452 208.258 328.205 203.742 338.474 196.119C348.832 203.981 361.785 208.657 375.843 208.657C411.833 208.657 432.01 208.657 468 208.657V47H447.992V188.834H375.998H416.103C416.103 188.834 375.893 188.834 375.843 188.834C356.528 188.834 340.299 175.76 335.67 158.058H436.46C437.04 154.696 437.348 151.241 437.348 147.713C437.348 114.057 409.809 86.7702 375.843 86.7702C341.874 86.7702 314.339 114.057 314.339 147.713C314.339 160.223 318.143 171.852 324.668 181.526C318.078 185.889 310.159 188.433 301.635 188.433C278.71 188.433 260.136 170.031 260.136 147.315V106.497H294.173V86.6713ZM335.581 137.723C340.086 119.844 356.402 106.595 375.843 106.595C395.284 106.595 411.6 119.844 416.103 137.723H335.581Z" fill="white"/>
</g>
<defs>
<filter id="filter0_d_1_12" x="0" y="0" width="515" height="256" filterUnits="userSpaceOnUse" color-interpolation-filters="sRGB">
<feFlood flood-opacity="0" result="BackgroundImageFix"/>
<feColorMatrix in="SourceAlpha" type="matrix" values="0 0 0 0 0 0 0 0 0 0 0 0 0 0 0 0 0 0 127 0" result="hardAlpha"/>
<feOffset/>
<feGaussianBlur stdDeviation="23.5"/>
<feColorMatrix type="matrix" values="0 0 0 0 0 0 0 0 0 0 0 0 0 0 0 0 0 0 1 0"/>
<feBlend mode="normal" in2="BackgroundImageFix" result="effect1_dropShadow_1_12"/>
<feBlend mode="normal" in="SourceGraphic" in2="effect1_dropShadow_1_12" result="shape"/>
</filter>
</defs>
</svg>
