<svg width="40" height="40" viewBox="0 0 40 40" fill="none" xmlns="http://www.w3.org/2000/svg">
<path fill-rule="evenodd" clip-rule="evenodd" d="M30.8053 32.9834L30.8064 32.9804L30.8354 32.9079L35.8334 7.70954V7.62769C35.8334 6.99986 35.6014 6.45176 35.0966 6.12299C34.6548 5.83522 34.1469 5.81474 33.7908 5.84177C33.4139 5.87036 33.0588 5.96439 32.8129 6.04266C32.6864 6.08292 32.5806 6.12171 32.5048 6.15106C32.4668 6.16579 32.4359 6.17829 32.4136 6.18759L32.3916 6.19686L4.52524 17.1284L4.51757 17.1311C4.50252 17.1366 4.48262 17.1441 4.45857 17.1534C4.41066 17.1721 4.34542 17.1988 4.26879 17.2336C4.11832 17.3018 3.91042 17.4069 3.69959 17.5513C3.34151 17.7966 2.65964 18.3771 2.77477 19.2974C2.87014 20.0598 3.39566 20.5439 3.74994 20.7946C3.93984 20.9291 4.12154 21.0259 4.25459 21.0893C4.32199 21.1214 4.37926 21.1459 4.42191 21.1633C4.44329 21.1719 4.46116 21.1789 4.47499 21.1843L4.49271 21.1908L4.50402 21.1951L9.37942 22.8364C9.36297 23.1423 9.39331 23.4541 9.47442 23.7619L11.9166 33.0259C12.2061 34.1243 13.1998 34.8894 14.3358 34.8886C15.354 34.8879 16.2571 34.2719 16.6407 33.3529L20.4534 29.2761L27.0018 34.2964L27.0949 34.3371C27.6898 34.5968 28.2458 34.6789 28.7539 34.6096C29.2614 34.5403 29.6646 34.3274 29.9676 34.0851C30.2658 33.8466 30.4699 33.5774 30.5984 33.3748C30.6638 33.2718 30.7124 33.1813 30.7461 33.1131C30.7631 33.0789 30.7764 33.0501 30.7864 33.0274L30.7991 32.9984L30.8036 32.9878L30.8053 32.9834ZM11.8918 23.1246C11.8363 22.9141 11.9234 22.6918 12.1072 22.5751L28.6439 12.0735C28.6439 12.0735 29.6166 11.483 29.5818 12.0735C29.5818 12.0735 29.7554 12.1778 29.2341 12.664C28.7398 13.1258 17.4481 24.0276 16.3055 25.1308C16.2395 25.1944 16.2002 25.2674 16.1769 25.3561L14.3339 32.3886L11.8918 23.1246Z" fill="white"/>
</svg>
