<svg width="26" height="29" viewBox="0 0 26 29" fill="none" xmlns="http://www.w3.org/2000/svg">
<path d="M9.32249 15.2346C7.04964 15.2346 5.21345 17.0708 5.24704 19.3213C5.26943 20.7656 6.06437 22.0196 7.23438 22.7194C6.83691 22.1092 6.60179 21.387 6.59059 20.6089C6.557 18.3584 8.39319 16.5222 10.666 16.5222C11.1139 16.5222 11.545 16.595 11.948 16.7238V12.2172C11.5282 12.1557 11.0971 12.1221 10.666 12.1221C10.6437 12.1221 10.6269 12.1221 10.6045 12.1221V15.4362C10.2014 15.3074 9.77034 15.2346 9.32249 15.2346Z" fill="white"/>
<path d="M19.1487 1.7207H19.1151H17.9507C18.2866 3.40575 19.2327 4.87246 20.5538 5.86893C19.6861 4.72131 19.1599 3.28818 19.1487 1.7207Z" fill="white"/>
<path d="M26.0007 8.57824C25.5584 8.57824 25.1329 8.53345 24.7131 8.45508L17.8274 9.33959L10.6058 27.5951C10.1859 27.6567 9.75484 27.6903 9.32378 27.6903C7.40921 27.6903 5.58422 27.0689 4.10071 25.9213C4.26865 26.1228 4.44779 26.3188 4.64373 26.5091C6.25599 28.099 8.39449 28.9779 10.6729 28.9779C11.104 28.9779 11.535 28.9443 11.9549 28.8827C13.7463 28.6196 15.3978 27.7967 16.7021 26.5091C18.3032 24.9248 19.1877 22.8255 19.1989 20.5863L19.1149 10.6272C19.8763 11.215 20.7104 11.7076 21.6117 12.0827C23.0056 12.6705 24.4836 12.9728 26.0007 12.9728" fill="white"/>
<path d="M4.62591 14.602C6.22138 13.0177 8.34308 12.1388 10.6047 12.122V10.9296C10.1849 10.8681 9.75381 10.8345 9.32275 10.8345C7.03871 10.8345 4.89462 11.7134 3.28236 13.3145C1.69808 14.8875 0.791181 17.0372 0.796779 19.2709C0.796779 21.5213 1.68688 23.6318 3.29355 25.2273C3.55107 25.4792 3.81418 25.7143 4.09409 25.9271C2.82891 24.4212 2.14033 22.5402 2.13474 20.5585C2.14033 18.3248 3.04163 16.1751 4.62591 14.602Z" fill="white"/>
<path d="M24.7119 8.45548V7.25748H24.7007C23.1444 7.25748 21.7113 6.74245 20.5581 5.86914C21.5602 7.1903 23.0269 8.13078 24.7119 8.45548Z" fill="white"/>
<path d="M10.4385 24.5723C10.9703 24.6003 11.4797 24.5275 11.95 24.3764C13.5734 23.8446 14.7434 22.3331 14.7434 20.5528L14.749 13.891V1.72068H17.9512C17.8672 1.30082 17.8224 0.875359 17.8168 0.433105H13.4055V12.5979L13.3999 19.2597C13.3999 21.0399 12.2299 22.5514 10.6064 23.0832C10.1362 23.24 9.62673 23.3127 9.09491 23.2791C8.41753 23.24 7.78495 23.0384 7.23633 22.7137C7.9249 23.7774 9.10051 24.4995 10.4385 24.5723Z" fill="white"/>
<path d="M10.606 27.5953C12.3974 27.3322 14.0489 26.5093 15.3532 25.2217C16.9543 23.6374 17.8388 21.5381 17.85 19.2989L17.8276 9.33978C18.589 9.92759 19.4231 10.4202 20.3244 10.7953C21.7183 11.3831 23.1962 11.6854 24.7133 11.6854V8.45527C23.0283 8.13058 21.5616 7.19009 20.5595 5.86893C19.2384 4.87246 18.2867 3.40575 17.9564 1.7207H14.7486V13.8855L14.743 20.5473C14.743 22.3275 13.573 23.839 11.9496 24.3708C11.4793 24.5275 10.9699 24.6003 10.4381 24.5667C9.09452 24.494 7.92451 23.7718 7.23594 22.7138C6.06593 22.0196 5.27099 20.76 5.2486 19.3157C5.21501 17.0652 7.0512 15.229 9.32405 15.229C9.7719 15.229 10.203 15.3018 10.606 15.4306V12.1165C8.34437 12.1333 6.22267 13.0122 4.6272 14.5964C3.04293 16.1695 2.13603 18.3192 2.14163 20.5473C2.14163 22.529 2.8302 24.41 4.10098 25.9159C5.59008 27.0635 7.40948 27.6849 9.32405 27.6849C9.7551 27.6905 10.1862 27.6569 10.606 27.5953Z" fill="white"/>
</svg>
