<svg width="40" height="40" viewBox="0 0 40 40" fill="none" xmlns="http://www.w3.org/2000/svg">
<path fill-rule="evenodd" clip-rule="evenodd" d="M11.648 8.15092C17.2075 7.71597 22.7924 7.71597 28.3519 8.15092L32.0864 8.44309C34.1665 8.60582 35.8682 10.1648 36.212 12.2228C37.0724 17.3719 37.0724 22.6282 36.212 27.7774C35.8682 29.8352 34.1665 31.3942 32.0864 31.557L28.3519 31.8492C22.7924 32.284 17.2075 32.284 11.648 31.8492L7.91351 31.557C5.83339 31.3942 4.13169 29.8352 3.78784 27.7774C2.92749 22.6282 2.92749 17.3719 3.78784 12.2228C4.13169 10.1648 5.83339 8.60582 7.91351 8.44309L11.648 8.15092ZM16.6665 24.1169V15.8831C16.6665 15.4945 17.0905 15.2544 17.4237 15.4544L24.2854 19.5714C24.609 19.7655 24.609 20.2345 24.2854 20.4287L17.4237 24.5457C17.0905 24.7457 16.6665 24.5055 16.6665 24.1169Z" fill="white"/>
</svg>
